<?xml version="1.0" encoding="UTF-8" standalone="no"?>
<!-- Generator: Adobe Illustrator 18.1.0, SVG Export Plug-In . SVG Version: 6.00 Build 0)  -->

<svg
   xmlns:dc="http://purl.org/dc/elements/1.1/"
   xmlns:cc="http://creativecommons.org/ns#"
   xmlns:rdf="http://www.w3.org/1999/02/22-rdf-syntax-ns#"
   xmlns:svg="http://www.w3.org/2000/svg"
   xmlns="http://www.w3.org/2000/svg"
   xmlns:sodipodi="http://sodipodi.sourceforge.net/DTD/sodipodi-0.dtd"
   xmlns:inkscape="http://www.inkscape.org/namespaces/inkscape"
   version="1.1"
   id="Calque_1"
   x="0px"
   y="0px"
   viewBox="0 0 113.37566 32.000005"
   enable-background="new 0 0 4500 3500"
   xml:space="preserve"
   inkscape:version="0.48.5 r10040"
   width="100%"
   height="100%"
   sodipodi:docname="LOGO 363636 vectorisé.svg"><metadata
     id="metadata37"><rdf:RDF><cc:Work
         rdf:about=""><dc:format>image/svg+xml</dc:format><dc:type
           rdf:resource="http://purl.org/dc/dcmitype/StillImage" /></cc:Work></rdf:RDF></metadata><defs
     id="defs35" /><sodipodi:namedview
     pagecolor="#ffffff"
     bordercolor="#666666"
     borderopacity="1"
     objecttolerance="10"
     gridtolerance="10"
     guidetolerance="10"
     inkscape:pageopacity="0"
     inkscape:pageshadow="2"
     inkscape:window-width="1920"
     inkscape:window-height="1027"
     id="namedview33"
     showgrid="false"
     fit-margin-top="0"
     fit-margin-left="0"
     fit-margin-right="0"
     fit-margin-bottom="0"
     inkscape:zoom="3.0514688"
     inkscape:cx="79.492617"
     inkscape:cy="-33.177134"
     inkscape:window-x="0"
     inkscape:window-y="31"
     inkscape:window-maximized="1"
     inkscape:current-layer="Calque_1" /><g
     id="g3"
     transform="matrix(0.02836377,0,0,0.02836377,-5.4146437,-33.179938)"><g
       id="g5"><path
         d="m 396.9,2279.1 c -18.5,-0.2 -33.4,-19.8 -33.1,-43.9 l 11.3,-1010.4 c 0.3,-24.1 15.6,-43.4 34.1,-43.2 l 0,0 c 18.6,0.2 33.4,19.9 33.2,43.9 L 431,2236 c -0.2,24 -15.5,43.3 -34.1,43.1 l 0,0 z"
         id="path7"
         inkscape:connector-curvature="0"
         style="fill:#363636" /></g><g
       id="g9"><path
         d="m 1207.8,2125.5 c 11.9,2 16.8,2 23.7,2 45.5,0 96.8,-15.8 151.2,-45.5 l 36.6,137.4 c -68.2,31.6 -116.6,43.5 -174.9,43.5 -148.2,0 -262.9,-109.7 -262.9,-250 0,-135.4 109.7,-245.1 245.1,-245.1 50.4,0 100.8,15.8 141.3,44.5 31.6,20.8 48.4,40.5 79,86 l -239.1,227.2 z M 1276,1917 c -19.8,-10.9 -30.6,-13.8 -49.4,-13.8 -57.3,0 -106.7,50.4 -106.7,108.7 0,14.8 2,24.7 8.9,46.4 L 1276,1917 z"
         id="path11"
         inkscape:connector-curvature="0"
         style="fill:#363636" /><path
         d="m 2020.1,2253.9 v -254 c 0,-42.5 -2,-55.3 -13.8,-72.2 -10.9,-15.8 -29.6,-24.7 -49.4,-24.7 -20.8,0 -39.5,8.9 -50.4,24.7 -11.9,16.8 -15.8,33.6 -15.8,71.2 v 255 h -137.4 v -255 c 0,-37.5 -4,-54.3 -15.8,-71.2 -10.9,-14.8 -29.6,-24.7 -50.4,-24.7 -20.8,0 -39.5,8.9 -50.4,24.7 -10.9,15.8 -13.8,29.7 -13.8,72.2 v 254 h -137.4 v -240.1 c 0,-94.9 12.8,-137.4 53.4,-182.8 36.6,-40.5 88,-63.2 145.3,-63.2 53.4,0 90.9,14.8 138.4,53.4 46.5,-38.5 84,-53.4 136.4,-53.4 62.3,0 118.6,26.7 155.2,75.1 33.6,44.5 43.5,82 43.5,171 V 2254 h -137.6 z"
         id="path13"
         inkscape:connector-curvature="0"
         style="fill:#363636" /><path
         d="m 2702.9,2017.8 c 0,133.4 -113.7,245.1 -247.1,245.1 -136.4,0 -248.1,-111.7 -248.1,-247.1 0,-137.4 111.7,-248.1 250,-248.1 136.5,0 245.2,110.7 245.2,250.1 z m -355.8,-2 c 0,61.3 48.4,111.7 107.7,111.7 58.3,0 108.7,-51.4 108.7,-110.7 0,-62.3 -47.5,-113.6 -106.7,-113.6 -60.2,-0.1 -109.7,50.3 -109.7,112.6 z"
         id="path15"
         inkscape:connector-curvature="0"
         style="fill:#363636" /><path
         d="m 3232.6,2017.8 c 0,133.4 -113.7,245.1 -247.1,245.1 -136.4,0 -248.1,-111.7 -248.1,-247.1 0,-137.4 111.7,-248.1 250,-248.1 136.5,0 245.2,110.7 245.2,250.1 z m -355.8,-2 c 0,61.3 48.4,111.7 107.7,111.7 58.3,0 108.7,-51.4 108.7,-110.7 0,-62.3 -47.5,-113.6 -106.7,-113.6 -60.3,-0.1 -109.7,50.3 -109.7,112.6 z"
         id="path17"
         inkscape:connector-curvature="0"
         style="fill:#363636" /><path
         d="m 3406.5,2253.9 c -41.5,-45.5 -67.2,-82 -93.9,-138.4 -32.6,-68.2 -46.5,-136.4 -46.5,-233.2 0,-5.9 0,-65.2 1,-105.7 h 137.4 c -2,206.6 13.8,287.6 73.1,357.8 59.3,-70.2 75.1,-151.2 73.1,-357.8 h 137.4 c 1,77.1 1,77.1 1,101.8 0,108.7 -14.8,175.9 -54.4,252 -26.7,52.4 -47.4,82 -86,123.5 h -142.2 z"
         id="path19"
         inkscape:connector-curvature="0"
         style="fill:#363636" /><path
         d="m 3949,2125.5 c 11.9,2 16.8,2 23.7,2 45.5,0 96.8,-15.8 151.2,-45.5 l 36.6,137.4 c -68.2,31.6 -116.6,43.5 -174.9,43.5 -148.2,0 -262.9,-109.7 -262.9,-250 0,-135.4 109.7,-245.1 245.1,-245.1 50.4,0 100.8,15.8 141.3,44.5 31.6,20.8 48.4,40.5 79,86 L 3949,2125.5 z m 68.2,-208.5 c -19.8,-10.9 -30.6,-13.8 -49.4,-13.8 -57.3,0 -106.7,50.4 -106.7,108.7 0,14.8 2,24.7 8.9,46.4 L 4017.2,1917 z"
         id="path21"
         inkscape:connector-curvature="0"
         style="fill:#363636" /></g><path
       d="M 933.8,1169.8 H 226.1 c -19.4,0 -35.2,17.3 -35.2,38.7 0,21.4 15.8,38.7 35.2,38.7 h 60.3 v 118.9 c 0,76.2 24.1,148.5 69.5,211.7 0.6,-66.1 1,-132.2 1.3,-198.3 -0.2,-4.4 -0.4,-8.9 -0.4,-13.4 V 1247.2 H 803 v 4.7 c 23.5,-0.5 46.9,-3.7 70.4,-4.6 v -0.1 h 2.6 c 1.3,0 2.7,-0.1 4,-0.1 1.1,0 2.2,0 3.2,0.1 h 50.5 c 19.4,0 35.2,-17.3 35.2,-38.7 0.1,-21.3 -15.7,-38.7 -35.1,-38.7 z"
       id="path23"
       inkscape:connector-curvature="0"
       style="fill:#363636" /><path
       d="m 933.8,2220.7 h -60.3 v -5.9 c -23.2,4.2 -47.4,4.6 -70.4,0.5 v 5.3 H 356.8 v -70.3 c -19.2,-37.8 -16.8,-88 -13.1,-129.4 2.3,-25.1 6.2,-50 8.6,-75.1 0.4,-3.8 0.6,-7.6 0.9,-11.3 0.1,-13.7 0.1,-27.4 0.2,-41.1 -43.8,62.4 -67,133.5 -67,208.3 v 118.9 h -60.3 c -19.4,0 -35.2,17.3 -35.2,38.7 0,21.4 15.8,38.7 35.2,38.7 h 707.7 c 19.4,0 35.2,-17.3 35.2,-38.7 0,-21.3 -15.8,-38.6 -35.2,-38.6 z"
       id="path25"
       inkscape:connector-curvature="0"
       style="fill:#363636" /><path
       d="m 856.4,1247 c -7.9,0.3 -15.7,0.5 -23.5,0.6 -9.8,0.2 -20,1.5 -29.9,0.9 v 117.7 c 0,126.4 -86.4,209.1 -137.9,247.1 -33.2,24.5 -53.1,69.7 -53.1,120.7 0,51 19.9,96.1 53.2,120.7 51.5,38 137.9,120.7 137.9,247.1 v 117.8 c 11.2,-0.7 23.1,1 34.1,1.1 2,0 4,0 6,0 10.1,-0.1 20.2,-0.6 30.3,-1.2 v -117.7 c 0,-120.3 -60,-230.9 -169,-311.4 -13.5,-10 -22,-31.6 -22,-56.4 0,-24.8 8.4,-46.4 22,-56.4 109,-80.5 169,-191.1 169,-311.4 v -118.9 h 0.7 c 0,-0.1 0,-0.2 -0.1,-0.2 -5.8,0.3 -11.8,0.1 -17.7,-0.1 z"
       id="path27"
       inkscape:connector-curvature="0"
       style="fill:#363636" /><g
       id="g29"><path
         d="m 401.1,2206.1 c 0,27.5 -2.5,49.7 -5.5,49.7 h -71.7 c -3,0 -5.5,-22.2 -5.5,-49.7 l 0,0 c 0,-27.3 2.5,-49.6 5.5,-49.6 h 71.7 c 3,0 5.5,22.2 5.5,49.6 l 0,0 z"
         id="path31"
         inkscape:connector-curvature="0"
         style="fill:#363636" /></g></g></svg>